<svg xmlns="http://www.w3.org/2000/svg" viewBox="0 0 271.97 79"><defs><style>.cls-1{fill:#00b1d7;}</style></defs><title>logo-csac</title><g id="Layer_2" data-name="Layer 2"><g id="Layer_1-2" data-name="Layer 1"><path class="cls-1" d="M59.25,79H19.75q-9.53,0-14.64-5.11T0,59.25V19.75Q0,10.34,5.17,5.17T19.75,0h39.5V19.75H26.6q-4.18,0-5.52,1.34t-1.34,5.63v28.7q0,2.9,2.09,3.6a26.35,26.35,0,0,0,4.76.23H59.25Z"/><path class="cls-1" d="M123.49,19.75H89q-4.76,0-4.76,4.65a5.47,5.47,0,0,0,1.34,3.66A4.3,4.3,0,0,0,89,29.63h2V49.38H84q-9.3,0-14.52-5.17T64.24,29.63V19.75q0-9.52,5.11-14.64T84,0h39.5Zm0,39.5q0,9.53-5.11,14.64T103.74,79H64.24V59.25H99q4.78,0,4.78-4.65a5.42,5.42,0,0,0-1.36-3.66,4.4,4.4,0,0,0-3.49-1.57h-2V29.63h6.85q9.41,0,14.58,5.17t5.17,14.58Z"/><path class="cls-1" d="M209.35,79H188.63L168.92,26.45,149.22,79H128.37L158,0h21.73Zm-30.79,0h-19.4l9.76-26.6Z"/><path class="cls-1" d="M272,79h-39.5q-9.53,0-14.64-5.11t-5.11-14.64V19.75q0-9.41,5.17-14.58T232.47,0H272V19.75H239.32q-4.18,0-5.52,1.34t-1.34,5.63v28.7q0,2.9,2.09,3.6a26.36,26.36,0,0,0,4.76.23H272Z"/></g></g></svg>