<svg xmlns="http://www.w3.org/2000/svg" viewBox="0 0 214.78 39"><defs><style>.cls-1{fill:#fff;}</style></defs><title>logo-lightr</title><g id="Layer_2" data-name="Layer 2"><g id="Layer_1-2" data-name="Layer 1"><path class="cls-1" d="M126.22,0V30.22h30.22V0Zm27.57,27.57H128.7V2.47h25.09Z"/><rect class="cls-1" x="134.88" y="10.25" width="3.36" height="9.54"/><path class="cls-1" d="M15,27A9.57,9.57,0,0,0,24.11,21h3.52a13.23,13.23,0,0,1-4.86,6.6,14.23,14.23,0,0,1-8.51,2.58A13.49,13.49,0,0,1,3.79,25.8,15.44,15.44,0,0,1,0,15.11,15.44,15.44,0,0,1,3.79,4.41,13.49,13.49,0,0,1,14.26,0a14.24,14.24,0,0,1,8.51,2.58,13.23,13.23,0,0,1,4.86,6.6H24.11A9.57,9.57,0,0,0,15,3.25a13.2,13.2,0,0,0-5.26.91A10,10,0,0,0,6.24,6.69a12.19,12.19,0,0,0-2.9,8.42,12.19,12.19,0,0,0,2.9,8.42Q9.27,27,15,27Z"/><path class="cls-1" d="M35.74,4.88a3.66,3.66,0,0,0-1.14,1.63,6.08,6.08,0,0,0-.29,1.89,2.55,2.55,0,0,0,.87,1.85,7,7,0,0,0,2.3,1.43,23.29,23.29,0,0,0,3.25,1l3.72.91q1.89.47,3.72,1.07a13.74,13.74,0,0,1,3.25,1.54,6.2,6.2,0,0,1,3.16,5.48A7.26,7.26,0,0,1,51.5,28q-3.1,2.18-8.58,2.18-6.19,0-9.45-2.58a9.12,9.12,0,0,1-3.3-6.6h3.48a5.48,5.48,0,0,0,2.94,4.63A12.75,12.75,0,0,0,43,27.05q8.29,0,8.29-5.21A3.23,3.23,0,0,0,49.76,19,13.29,13.29,0,0,0,46,17.34q-2.25-.67-4.86-1.25A30.41,30.41,0,0,1,36.3,14.6a11.12,11.12,0,0,1-3.74-2.41,5.45,5.45,0,0,1-1.49-4,7.26,7.26,0,0,1,2.76-5.88Q36.59,0,42.16,0t8.69,2.58a7.71,7.71,0,0,1,3,5.84H50.4Q50,4.77,45.68,3.57a13.58,13.58,0,0,0-3.77-.45,12.11,12.11,0,0,0-3.79.51A7,7,0,0,0,35.74,4.88Z"/><path class="cls-1" d="M85.52,29.86h-3.7L78.21,21.3H63.6L60,29.86h-3.7L68.81.36H73Zm-8.6-11.63-6-14.39-6,14.39Z"/><path class="cls-1" d="M101.83,27A9.57,9.57,0,0,0,110.93,21h3.52a13.23,13.23,0,0,1-4.86,6.6,14.23,14.23,0,0,1-8.51,2.58A13.49,13.49,0,0,1,90.6,25.8a15.44,15.44,0,0,1-3.79-10.7A15.44,15.44,0,0,1,90.6,4.41,13.49,13.49,0,0,1,101.08,0a14.24,14.24,0,0,1,8.51,2.58,13.23,13.23,0,0,1,4.86,6.6h-3.52a9.57,9.57,0,0,0-9.09-5.93,13.2,13.2,0,0,0-5.26.91,10,10,0,0,0-3.52,2.52,12.19,12.19,0,0,0-2.9,8.42,12.19,12.19,0,0,0,2.9,8.42Q96.08,27,101.83,27Z"/><path class="cls-1" d="M2.16,35.09a1,1,0,0,0-.85.41A1.92,1.92,0,0,0,1,36.65q0,1.53,1.15,1.54a3.69,3.69,0,0,0,1.17-.24v.82A3.27,3.27,0,0,1,2.06,39a1.93,1.93,0,0,1-1.53-.61A2.58,2.58,0,0,1,0,36.65a2.85,2.85,0,0,1,.26-1.26A1.89,1.89,0,0,1,1,34.56a2.22,2.22,0,0,1,1.15-.29,3.11,3.11,0,0,1,1.35.32l-.31.79a5.14,5.14,0,0,0-.52-.21A1.51,1.51,0,0,0,2.16,35.09Z"/><path class="cls-1" d="M8.41,36.63a2.5,2.5,0,0,1-.57,1.75A2.1,2.1,0,0,1,6.23,39a2.1,2.1,0,0,1-1.62-.61A2.51,2.51,0,0,1,4,36.63a2.47,2.47,0,0,1,.57-1.75,2.12,2.12,0,0,1,1.63-.61,2.09,2.09,0,0,1,1.62.61A2.5,2.5,0,0,1,8.41,36.63Zm-3.35,0a1.92,1.92,0,0,0,.29,1.16,1,1,0,0,0,.87.39q1.17,0,1.17-1.55T6.23,35.08a1,1,0,0,0-.88.39A1.91,1.91,0,0,0,5.06,36.63Z"/><path class="cls-1" d="M13.44,38.94H12.2l-2-3.48h0c0,.61.06,1.05.06,1.31v2.16H9.37v-4.6H10.6l2,3.44h0c0-.6,0-1,0-1.27V34.34h.88Z"/><path class="cls-1" d="M17.31,37.66a1.19,1.19,0,0,1-.45,1,2,2,0,0,1-1.25.36,2.94,2.94,0,0,1-1.3-.28v-.91a5.36,5.36,0,0,0,.79.29,2.39,2.39,0,0,0,.59.08.84.84,0,0,0,.49-.12.42.42,0,0,0,.17-.36.4.4,0,0,0-.08-.24.82.82,0,0,0-.22-.2,5.73,5.73,0,0,0-.6-.31,2.76,2.76,0,0,1-.63-.38,1.43,1.43,0,0,1-.34-.42,1.21,1.21,0,0,1-.13-.56,1.19,1.19,0,0,1,.41-1,1.72,1.72,0,0,1,1.14-.35,2.68,2.68,0,0,1,.68.09,4.47,4.47,0,0,1,.68.24l-.31.76a4.65,4.65,0,0,0-.61-.21,2,2,0,0,0-.47-.06.62.62,0,0,0-.42.13.46.46,0,0,0-.09.56.67.67,0,0,0,.19.18,5.56,5.56,0,0,0,.62.32,2.46,2.46,0,0,1,.88.62A1.2,1.2,0,0,1,17.31,37.66Z"/><path class="cls-1" d="M20.79,38.94H18.15v-4.6h2.65v.8H19.12v1h1.56v.8H19.12v1.18h1.67Z"/><path class="cls-1" d="M23.47,38.94H21.38v-.55l.56-.26v-3l-.56-.26v-.55h2.09v.55l-.56.26v3l.56.26Z"/><path class="cls-1" d="M24.26,38.94v-4.6h1v3.79h1.86v.8Z"/><path class="cls-1" d="M32.28,37.66a1.19,1.19,0,0,1-.45,1,2,2,0,0,1-1.25.36,2.94,2.94,0,0,1-1.3-.28v-.91a5.36,5.36,0,0,0,.79.29,2.39,2.39,0,0,0,.59.08.84.84,0,0,0,.49-.12.42.42,0,0,0,.17-.36.4.4,0,0,0-.08-.24.82.82,0,0,0-.22-.2,5.73,5.73,0,0,0-.6-.31,2.76,2.76,0,0,1-.63-.38,1.43,1.43,0,0,1-.34-.42,1.21,1.21,0,0,1-.13-.56,1.19,1.19,0,0,1,.41-1,1.72,1.72,0,0,1,1.14-.35,2.68,2.68,0,0,1,.68.09,4.47,4.47,0,0,1,.68.24l-.31.76a4.65,4.65,0,0,0-.61-.21,2,2,0,0,0-.47-.06.62.62,0,0,0-.42.13.46.46,0,0,0-.09.56.67.67,0,0,0,.19.18,5.56,5.56,0,0,0,.62.32,2.46,2.46,0,0,1,.88.62A1.2,1.2,0,0,1,32.28,37.66Z"/><path class="cls-1" d="M36.85,34.34v3a1.71,1.71,0,0,1-.23.89,1.48,1.48,0,0,1-.66.59,2.35,2.35,0,0,1-1,.2,2,2,0,0,1-1.38-.45,1.61,1.61,0,0,1-.49-1.24v-3h1v2.81a1.19,1.19,0,0,0,.21.78.89.89,0,0,0,.71.25.87.87,0,0,0,.69-.25,1.19,1.19,0,0,0,.21-.79V34.34Z"/><path class="cls-1" d="M41.15,35.78a1.41,1.41,0,0,1-.46,1.14,2,2,0,0,1-1.32.39h-.42v1.63H38v-4.6h1.47a1.94,1.94,0,0,1,1.27.36A1.31,1.31,0,0,1,41.15,35.78Zm-2.2.73h.32a1.07,1.07,0,0,0,.67-.18.62.62,0,0,0,.22-.52A.64.64,0,0,0,40,35.3a.88.88,0,0,0-.59-.16h-.44Z"/><path class="cls-1" d="M44.66,38.94H42v-4.6h2.65v.8H43v1h1.56v.8H43v1.18h1.67Zm-1.89-5v-.09a8.69,8.69,0,0,0,.74-.95h1.08V33c-.11.11-.29.27-.56.48s-.47.37-.62.48Z"/><path class="cls-1" d="M46.6,37.17v1.76h-1v-4.6H47a2.29,2.29,0,0,1,1.39.34,1.36,1.36,0,0,1,.23,1.76,1.46,1.46,0,0,1-.63.5l1.35,2H48.21l-1.1-1.76Zm0-.79h.31a1.21,1.21,0,0,0,.68-.15.55.55,0,0,0,.22-.48.5.5,0,0,0-.22-.47,1.36,1.36,0,0,0-.7-.14h-.3Z"/><path class="cls-1" d="M51.59,38.94H49.5v-.55l.56-.26v-3l-.56-.26v-.55h2.09v.55l-.56.26v3l.56.26Z"/><path class="cls-1" d="M55,38.94H52.38v-4.6H55v.8H53.35v1h1.56v.8H53.35v1.18H55Z"/><path class="cls-1" d="M59.72,34.34v3a1.71,1.71,0,0,1-.23.89,1.48,1.48,0,0,1-.66.59,2.35,2.35,0,0,1-1,.2,2,2,0,0,1-1.38-.45A1.61,1.61,0,0,1,56,37.3v-3h1v2.81a1.19,1.19,0,0,0,.21.78.89.89,0,0,0,.71.25.87.87,0,0,0,.69-.25,1.19,1.19,0,0,0,.21-.79V34.34Z"/><path class="cls-1" d="M61.82,37.17v1.76h-1v-4.6h1.34a2.29,2.29,0,0,1,1.39.34,1.36,1.36,0,0,1,.23,1.76,1.46,1.46,0,0,1-.63.5l1.35,2H63.44l-1.1-1.76Zm0-.79h.31a1.21,1.21,0,0,0,.68-.15.55.55,0,0,0,.22-.48.5.5,0,0,0-.22-.47,1.36,1.36,0,0,0-.7-.14h-.3Z"/><path class="cls-1" d="M70.58,36.6a2.26,2.26,0,0,1-.65,1.74,2.63,2.63,0,0,1-1.87.6h-1.3v-4.6h1.44a2.43,2.43,0,0,1,1.75.59A2.19,2.19,0,0,1,70.58,36.6Zm-1,0q0-1.48-1.31-1.48h-.52v3h.42Q69.57,38.13,69.57,36.62Z"/><path class="cls-1" d="M74.18,38.94H71.53v-4.6h2.65v.8H72.51v1h1.56v.8H72.51v1.18h1.67Z"/><path class="cls-1" d="M76.81,38.94v-4.6h1v3.79h1.86v.8Z"/><path class="cls-1" d="M81.45,34.24l-.13,1.66H80.7l-.13-1.66Z"/><path class="cls-1" d="M85.45,38.94l-.33-1.09H83.44l-.33,1.09h-1l1.62-4.61h1.19l1.63,4.61ZM84.88,37l-.52-1.68c0-.13-.07-.23-.08-.31q-.1.4-.59,2Z"/><path class="cls-1" d="M90.82,34.34v3a1.71,1.71,0,0,1-.23.89,1.48,1.48,0,0,1-.66.59,2.35,2.35,0,0,1-1,.2,2,2,0,0,1-1.38-.45A1.61,1.61,0,0,1,87,37.3v-3h1v2.81a1.19,1.19,0,0,0,.21.78.89.89,0,0,0,.71.25.87.87,0,0,0,.69-.25,1.19,1.19,0,0,0,.21-.79V34.34Z"/><path class="cls-1" d="M95.76,36.6a2.26,2.26,0,0,1-.65,1.74,2.63,2.63,0,0,1-1.87.6h-1.3v-4.6h1.44a2.43,2.43,0,0,1,1.75.59A2.19,2.19,0,0,1,95.76,36.6Zm-1,0q0-1.48-1.31-1.48h-.52v3h.42Q94.74,38.13,94.74,36.62Z"/><path class="cls-1" d="M98.43,38.94H96.34v-.55l.56-.26v-3l-.56-.26v-.55h2.09v.55l-.56.26v3l.56.26Z"/><path class="cls-1" d="M103.38,36.63a2.5,2.5,0,0,1-.57,1.75,2.45,2.45,0,0,1-3.24,0A2.51,2.51,0,0,1,99,36.63a2.47,2.47,0,0,1,.57-1.75,2.12,2.12,0,0,1,1.63-.61,2.09,2.09,0,0,1,1.62.61A2.5,2.5,0,0,1,103.38,36.63Zm-3.35,0a1.92,1.92,0,0,0,.29,1.16,1,1,0,0,0,.87.39q1.17,0,1.17-1.55t-1.16-1.55a1,1,0,0,0-.88.39A1.91,1.91,0,0,0,100,36.63Z"/><path class="cls-1" d="M106.93,34.34h1l-1.56,4.6h-1.06l-1.56-4.6h1l.86,2.73q.07.24.15.56t.1.45a8.12,8.12,0,0,1,.24-1Z"/><path class="cls-1" d="M110.21,38.94h-2.09v-.55l.56-.26v-3l-.56-.26v-.55h2.09v.55l-.56.26v3l.56.26Z"/><path class="cls-1" d="M113.71,37.66a1.19,1.19,0,0,1-.45,1A2,2,0,0,1,112,39a2.94,2.94,0,0,1-1.3-.28v-.91a5.36,5.36,0,0,0,.79.29,2.39,2.39,0,0,0,.59.08.84.84,0,0,0,.49-.12.42.42,0,0,0,.17-.36.4.4,0,0,0-.08-.24.82.82,0,0,0-.22-.2,5.73,5.73,0,0,0-.6-.31,2.76,2.76,0,0,1-.63-.38,1.43,1.43,0,0,1-.34-.42,1.21,1.21,0,0,1-.13-.56,1.19,1.19,0,0,1,.41-1,1.72,1.72,0,0,1,1.14-.35,2.68,2.68,0,0,1,.68.09,4.47,4.47,0,0,1,.68.24l-.31.76a4.65,4.65,0,0,0-.61-.21,2,2,0,0,0-.47-.06.62.62,0,0,0-.42.13.46.46,0,0,0-.09.56A.67.67,0,0,0,112,36a5.56,5.56,0,0,0,.62.32,2.46,2.46,0,0,1,.88.62A1.2,1.2,0,0,1,113.71,37.66Z"/><path class="cls-1" d="M118.28,34.34v3a1.71,1.71,0,0,1-.23.89,1.48,1.48,0,0,1-.66.59,2.35,2.35,0,0,1-1,.2,2,2,0,0,1-1.38-.45,1.61,1.61,0,0,1-.49-1.24v-3h1v2.81a1.19,1.19,0,0,0,.21.78.89.89,0,0,0,.71.25.87.87,0,0,0,.69-.25,1.19,1.19,0,0,0,.21-.79V34.34Z"/><path class="cls-1" d="M122.05,38.94h-2.65v-4.6h2.65v.8h-1.67v1h1.56v.8h-1.56v1.18h1.67Z"/><path class="cls-1" d="M123,38.94v-4.6h1v3.79h1.86v.8Z"/><path class="cls-1" d="M131,38.94h-2.65v-4.6H131v.8h-1.67v1h1.56v.8h-1.56v1.18H131Z"/><path class="cls-1" d="M133.7,38.94h-1V35.15h-1.25v-.81h3.47v.81H133.7Z"/><path class="cls-1" d="M141.14,36.6a2.26,2.26,0,0,1-.65,1.74,2.63,2.63,0,0,1-1.87.6h-1.3v-4.6h1.44a2.43,2.43,0,0,1,1.75.59A2.19,2.19,0,0,1,141.14,36.6Zm-1,0q0-1.48-1.31-1.48h-.52v3h.42Q140.12,38.13,140.13,36.62Z"/><path class="cls-1" d="M144.74,38.94h-2.65v-4.6h2.65v.8h-1.67v1h1.56v.8h-1.56v1.18h1.67Z"/><path class="cls-1" d="M147.37,38.94v-4.6h1v3.79h1.86v.8Z"/><path class="cls-1" d="M153.82,38.94l-.33-1.09h-1.68l-.33,1.09h-1L152,34.32h1.19l1.63,4.61ZM153.25,37l-.52-1.68c0-.13-.07-.23-.08-.31q-.1.4-.59,2Z"/><path class="cls-1" d="M159.07,35.09a1,1,0,0,0-.85.41,1.92,1.92,0,0,0-.3,1.15q0,1.53,1.15,1.54a3.69,3.69,0,0,0,1.17-.24v.82A3.27,3.27,0,0,1,159,39a1.93,1.93,0,0,1-1.53-.61,2.58,2.58,0,0,1-.53-1.75,2.85,2.85,0,0,1,.26-1.26,1.89,1.89,0,0,1,.75-.83,2.22,2.22,0,0,1,1.15-.29,3.11,3.11,0,0,1,1.35.32l-.31.79a5.14,5.14,0,0,0-.52-.21A1.51,1.51,0,0,0,159.07,35.09Z"/><path class="cls-1" d="M165.33,36.63a2.5,2.5,0,0,1-.57,1.75,2.45,2.45,0,0,1-3.24,0,2.51,2.51,0,0,1-.57-1.76,2.47,2.47,0,0,1,.57-1.75,2.12,2.12,0,0,1,1.63-.61,2.09,2.09,0,0,1,1.62.61A2.5,2.5,0,0,1,165.33,36.63Zm-3.35,0a1.92,1.92,0,0,0,.29,1.16,1,1,0,0,0,.87.39q1.17,0,1.17-1.55t-1.16-1.55a1,1,0,0,0-.88.39A1.91,1.91,0,0,0,162,36.63Z"/><path class="cls-1" d="M168.22,38.94l-1.11-3.61h0q.06,1.1.06,1.47v2.14h-.87v-4.6h1.33l1.09,3.51h0l1.15-3.51h1.33v4.6h-.91V36.76c0-.1,0-.22,0-.35s0-.49,0-1.07h0l-1.18,3.6Z"/><path class="cls-1" d="M174.29,38.94l-1.11-3.61h0q.06,1.1.06,1.47v2.14h-.87v-4.6h1.33l1.09,3.51h0l1.15-3.51h1.33v4.6h-.91V36.76c0-.1,0-.22,0-.35s0-.49,0-1.07h0l-1.18,3.6Z"/><path class="cls-1" d="M182.16,34.34v3a1.7,1.7,0,0,1-.23.89,1.47,1.47,0,0,1-.66.59,2.34,2.34,0,0,1-1,.2,2,2,0,0,1-1.38-.45,1.61,1.61,0,0,1-.49-1.24v-3h1v2.81a1.19,1.19,0,0,0,.21.78.89.89,0,0,0,.71.25.87.87,0,0,0,.69-.25,1.18,1.18,0,0,0,.22-.79V34.34Z"/><path class="cls-1" d="M187.36,38.94h-1.24l-2-3.48h0c0,.61.06,1.05.06,1.31v2.16h-.87v-4.6h1.23l2,3.44h0c0-.6,0-1,0-1.27V34.34h.88Z"/><path class="cls-1" d="M190.24,38.94h-2.09v-.55l.56-.26v-3l-.56-.26v-.55h2.09v.55l-.56.26v3l.56.26Z"/><path class="cls-1" d="M193,35.09a1,1,0,0,0-.85.41,1.93,1.93,0,0,0-.3,1.15q0,1.53,1.15,1.54a3.7,3.7,0,0,0,1.17-.24v.82a3.28,3.28,0,0,1-1.26.23,1.93,1.93,0,0,1-1.53-.61,2.57,2.57,0,0,1-.53-1.75,2.87,2.87,0,0,1,.26-1.26,1.89,1.89,0,0,1,.75-.83,2.22,2.22,0,0,1,1.15-.29,3.11,3.11,0,0,1,1.35.32l-.31.79a5.14,5.14,0,0,0-.52-.21A1.52,1.52,0,0,0,193,35.09Z"/><path class="cls-1" d="M197.94,38.94l-.33-1.09h-1.67l-.33,1.09h-1l1.62-4.61h1.19L199,38.94ZM197.37,37l-.52-1.68c0-.13-.07-.23-.08-.31q-.1.4-.59,2Z"/><path class="cls-1" d="M201.12,38.94h-1V35.15H198.9v-.81h3.47v.81h-1.25Z"/><path class="cls-1" d="M204.79,38.94H202.7v-.55l.56-.26v-3l-.56-.26v-.55h2.09v.55l-.56.26v3l.56.26Z"/><path class="cls-1" d="M209.75,36.63a2.49,2.49,0,0,1-.57,1.75,2.45,2.45,0,0,1-3.24,0,2.5,2.5,0,0,1-.56-1.76,2.47,2.47,0,0,1,.57-1.75,2.12,2.12,0,0,1,1.63-.61,2.09,2.09,0,0,1,1.62.61A2.49,2.49,0,0,1,209.75,36.63Zm-3.35,0a1.93,1.93,0,0,0,.29,1.16,1,1,0,0,0,.87.39q1.17,0,1.17-1.55t-1.16-1.55a1,1,0,0,0-.88.39A1.91,1.91,0,0,0,206.4,36.63Z"/><path class="cls-1" d="M214.78,38.94h-1.24l-2-3.48h0c0,.61.06,1.05.06,1.31v2.16h-.87v-4.6h1.23l2,3.44h0c0-.6,0-1,0-1.27V34.34h.88Z"/></g></g></svg>